:SAMPLES-PER-SECOND 30
:FULLY-SPECIFIED
:DEGREES
312
root  -0.10049 39.8517 12.7746 -172.992 -3.9063 179.535
RightUpLeg  -12.0882 -4.47667 -8.60749
RightLeg  10.3906 3.95778 -1.29516
RightFoot  -2.79492 -0.600033 7.76292
RightToes  -1.33073e-015 0 -3.6325e-017
Spine  14.6046 0.451363 4.85053
Spine1  11.1734 -0.000451854 3.51085
HEad  7.33656 -8.95883 3.60355
LeftShoulder1  7.23011 -16.7076 -29.7036
LeftArm  -1.95621 -37.6327 -72.0198
LeftForeArm  50.2359 5.78595 -2.38784
LeftHand  -0.246645 0.021 5.37786
RightShoulder  9.75821 17.4846 40.2976
RightArm  -6.66648 31.2937 49.9108
RightForeArm  9.73403 6.14831 9.8009
RightHand  -0.24729 -0.0210522 -5.37781
LeftUpLeg  -12.8278 12.4521 9.82193
LeftLeg  8.21165 0.834719 -2.71539
LeftFoot  1.2409 0.983596 -8.9435
LeftToes  5.09284e-011 3.02203e-011 3.83118e-011
313
root  -0.0283683 39.8291 12.8148 -172.989 -3.13348 179.583
RightUpLeg  -12.6122 -3.8409 -8.47239
RightLeg  10.889 4.07246 -1.24086
RightFoot  -2.90581 -0.585914 7.66418
RightToes  -1.33073e-015 0 -3.6325e-017
Spine  14.984 0.317366 4.83108
Spine1  11.0314 0.0632084 2.86576
HEad  7.20538 -8.79471 3.67874
LeftShoulder1  7.34103 -16.7958 -30.1004
LeftArm  -2.10806 -36.9978 -71.7725
LeftForeArm  44.6286 6.00358 -2.82793
LeftHand  -0.246645 0.021 5.37786
RightShoulder  9.69956 17.4624 40.0794
RightArm  -6.21544 32.3431 49.9426
RightForeArm  10.1575 4.64138 10.0135
RightHand  -0.24729 -0.0210522 -5.37781
LeftUpLeg  -12.8497 12.8199 9.96611
LeftLeg  8.51287 1.17874 -2.56104
LeftFoot  1.0816 0.995985 -9.13921
LeftToes  5.09284e-011 3.02203e-011 3.83118e-011
314
root  0.0622914 39.8069 12.8542 -172.933 -2.37172 179.68
RightUpLeg  -13.1758 -3.23453 -8.27119
RightLeg  11.3617 4.18995 -1.13944
RightFoot  -2.99616 -0.568886 7.5065
RightToes  -1.33073e-015 0 -3.6325e-017
Spine  15.3621 0.257033 4.69492
Spine1  10.7622 0.132047 2.43265
HEad  7.28299 -8.62124 3.71149
LeftShoulder1  7.42107 -16.8627 -30.3778
LeftArm  -2.37422 -36.2701 -71.7114
LeftForeArm  39.2266 6.18021 -3.18027
LeftHand  -0.246645 0.021 5.37786
RightShoulder  9.63074 17.4324 39.8302
RightArm  -5.42967 33.2027 49.9616
RightForeArm  10.8807 3.49791 10.2522
RightHand  -0.24729 -0.0210522 -5.37781
LeftUpLeg  -12.9192 13.1703 10.1769
LeftLeg  8.78756 1.51577 -2.37922
LeftFoot  0.962367 1.01242 -9.39839
LeftToes  5.09284e-011 3.02203e-011 3.83118e-011
315
root  0.167735 39.791 12.8878 -172.885 -1.59155 179.831
RightUpLeg  -13.6582 -2.73169 -7.99136
RightLeg  11.6984 4.42442 -0.986684
RightFoot  -3.0186 -0.550092 7.2682
RightToes  -1.33073e-015 0 -3.6325e-017
Spine  15.6906 0.245032 4.47529
Spine1  10.5624 0.194777 2.14823
HEad  7.52644 -8.32289 3.69196
LeftShoulder1  7.45606 -16.8823 -30.516
LeftArm  -2.83016 -35.4966 -71.7768
LeftForeArm  34.6473 6.28891 -3.33626
LeftHand  -0.246645 0.021 5.37786
RightShoulder  9.56519 17.4183 39.5616
RightArm  -4.54335 33.9483 50.0977
RightForeArm  12.0226 2.76729 10.5382
RightHand  -0.24729 -0.0210522 -5.37781
LeftUpLeg  -12.9114 13.4897 10.4964
LeftLeg  8.97281 1.90939 -2.22173
LeftFoot  0.874399 1.02899 -9.65859
LeftToes  5.09284e-011 3.02203e-011 3.83118e-011
316
root  0.273497 39.781 12.9135 -172.876 -0.839844 179.997
RightUpLeg  -14.007 -2.32079 -7.6792
RightLeg  11.903 4.73214 -0.844375
RightFoot  -2.99601 -0.533231 7.02853
RightToes  -1.33073e-015 0 -3.6325e-017
Spine  16.0443 0.263154 4.21989
Spine1  10.3637 0.23988 2.02154
HEad  7.73712 -7.95005 3.70186
LeftShoulder1  7.4578 -16.8797 -30.5295
LeftArm  -3.33167 -34.7849 -71.9399
LeftForeArm  31.0143 6.3484 -3.36985
LeftHand  -0.246645 0.021 5.37786
RightShoulder  9.52012 17.4344 39.3223
RightArm  -3.63574 34.5511 50.327
RightForeArm  13.269 2.34421 10.8399
RightHand  -0.24729 -0.0210522 -5.37781
LeftUpLeg  -12.791 13.7915 10.8628
LeftLeg  9.05894 2.31636 -2.11396
LeftFoot  0.803237 1.04165 -9.84519
LeftToes  5.09284e-011 3.02203e-011 3.83118e-011
317
root  0.36816 39.7713 12.9344 -172.876 -0.174805 -179.819
RightUpLeg  -14.2684 -1.97457 -7.34424
RightLeg  12.0304 5.02608 -0.749806
RightFoot  -2.97115 -0.521528 6.85436
RightToes  -1.33073e-015 0 -3.6325e-017
Spine  16.5263 0.315786 4.01658
Spine1  9.96217 0.291665 2.04633
HEad  7.79095 -7.61658 3.79355
LeftShoulder1  7.4263 -16.8674 -30.3951
LeftArm  -3.71277 -34.2016 -72.2886
LeftForeArm  28.0816 6.389 -3.39768
LeftHand  -0.246645 0.021 5.37786
RightShoulder  9.5088 17.4556 39.2265
RightArm  -2.70352 34.8824 50.4665
RightForeArm  14.191 2.16139 11.1842
RightHand  -0.24729 -0.0210522 -5.37781
LeftUpLeg  -12.6768 14.1286 11.2165
LeftLeg  9.16038 2.61971 -2.01096
LeftFoot  0.723044 1.05054 -9.97894
LeftToes  5.09284e-011 3.02203e-011 3.83118e-011
